<svg id="Capa_1" enable-background="new 0 0 512 512" height="512" viewBox="0 0 512 512" width="512" xmlns="http://www.w3.org/2000/svg"><g><path d="m467 62h-65.859c-1.642-4.642-5.516-8.305-10.503-9.552l-28.638-7.159v-30.289c0-8.284-6.716-15-15-15h-60c-8.284 0-15 6.716-15 15v30.289l-28.638 7.159c-4.987 1.247-8.86 4.91-10.503 9.552h-65.859c-24.813 0-45 20.187-45 45v360c0 24.813 20.187 45 45 45h300c24.813 0 45-20.187 45-45v-360c0-24.813-20.187-45-45-45zm-45 290h-55c-8.284 0-15 6.716-15 15v55h-140v-330h20v25c0 8.284 6.716 15 15 15h140c8.284 0 15-6.716 15-15v-25h20zm-21.213 30-18.787 18.787v-18.787zm-110.149-310.448c6.677-1.669 11.362-7.669 11.362-14.552v-27h30v27c0 6.883 4.685 12.883 11.362 14.552l28.638 7.159v23.289h-110v-23.289zm191.362 395.448c0 8.271-6.729 15-15 15h-300c-8.271 0-15-6.729-15-15v-360c0-8.271 6.729-15 15-15h15v345c0 8.284 6.716 15 15 15h170c3.978 0 7.793-1.581 10.606-4.394l70-70c2.813-2.813 4.394-6.628 4.394-10.606v-275h15c8.271 0 15 6.729 15 15z"/><path d="m377 162h-120c-8.284 0-15 6.716-15 15v120c0 8.284 6.716 15 15 15h120c8.284 0 15-6.716 15-15v-120c0-8.284-6.716-15-15-15zm-15 120h-90v-90h30v15c0 8.284 6.716 15 15 15s15-6.716 15-15v-15h30z"/><path d="m317 352h-60c-8.284 0-15 6.716-15 15s6.716 15 15 15h60c8.284 0 15-6.716 15-15s-6.716-15-15-15z"/><path d="m75 92h-15v-15c0-8.284-6.716-15-15-15s-15 6.716-15 15v15h-15c-8.284 0-15 6.716-15 15v300c0 2.031.413 4.042 1.213 5.909l28.787 67.17v16.921c0 8.284 6.716 15 15 15s15-6.716 15-15v-16.921l28.787-67.17c.8-1.867 1.213-3.878 1.213-5.909v-300c0-8.284-6.716-15-15-15zm-30 346.921-7.252-16.921h14.504zm15-46.921h-30v-190h30zm0-220h-30v-50h30z"/></g></svg>